<?xml version="1.0" encoding="UTF-8"?>
<svg version="1.1" xmlns="http://www.w3.org/2000/svg" width="512" height="512">
<path d="M0 0 C168.96 0 337.92 0 512 0 C512 168.96 512 337.92 512 512 C343.04 512 174.08 512 0 512 C0 343.04 0 174.08 0 0 Z " fill="#20759A" transform="translate(0,0)"/>
<path d="M0 0 C0.70964905 -0.00100708 1.4192981 -0.00201416 2.15045166 -0.00305176 C12.4757258 0.00683863 22.41214423 0.5004731 32.50634766 2.81005859 C34.56331232 3.2639712 36.62331115 3.63171584 38.69921875 3.98828125 C81.14817463 11.7158489 119.02960994 39.24153243 144.5 73.25 C145.13808594 74.09304687 145.77617187 74.93609375 146.43359375 75.8046875 C159.17276761 93.28059806 168.18087309 113.35342998 173.5 134.25 C173.78617187 135.37148438 173.78617187 135.37148438 174.078125 136.515625 C176.7168236 146.99910322 178.6304168 157.13808862 178.73828125 167.97265625 C178.74802979 168.787379 178.75777832 169.60210175 178.76782227 170.44151306 C178.93497559 188.02531201 178.96174467 205.11059462 174.5 222.25 C174.31808105 222.96333496 174.13616211 223.67666992 173.94873047 224.41162109 C172.70571206 229.11820643 171.18103864 233.68348388 169.5 238.25 C169.22172363 239.01876465 168.94344727 239.7875293 168.65673828 240.57958984 C161.64827663 259.70219072 152.29655708 276.41482295 139.5 292.25 C139.00741699 292.86359375 138.51483398 293.4771875 138.00732422 294.109375 C107.92141806 331.27256624 64.46118601 353.09215847 17.26953125 358.87060547 C-16.08659513 362.22782182 -49.49182103 356.00206906 -79.5 341.25 C-80.14630371 340.93836914 -80.79260742 340.62673828 -81.45849609 340.30566406 C-95.68274687 333.38575828 -108.69905937 324.36176114 -120.1640625 313.46484375 C-122.19397873 311.54015729 -124.27455453 309.77008395 -126.4375 308 C-148.05399553 289.07453759 -162.20751786 261.93595638 -171.5 235.25 C-171.90992188 234.12464844 -172.31984375 232.99929688 -172.7421875 231.83984375 C-173.82115949 228.6656587 -174.69271192 225.50438007 -175.5 222.25 C-175.68046875 221.54504395 -175.8609375 220.84008789 -176.046875 220.11376953 C-179.39520719 206.44612639 -179.89934155 192.87284445 -179.9375 178.875 C-179.94358276 178.03045258 -179.94966553 177.18590515 -179.95593262 176.31576538 C-180.02652534 161.32627505 -178.12106759 147.17486601 -174.1875 132.6875 C-173.97367676 131.89778809 -173.75985352 131.10807617 -173.53955078 130.29443359 C-165.30100755 100.67731682 -149.3397992 75.64445562 -128.5 53.25 C-127.88769531 52.58355469 -127.27539062 51.91710937 -126.64453125 51.23046875 C-94.02280669 17.07851404 -46.47518143 0.04596551 0 0 Z " fill="#02779D" transform="translate(256.5,76.75)"/>
<path d="M0 0 C0.72445312 -0.00386719 1.44890625 -0.00773437 2.1953125 -0.01171875 C6.38321035 -0.00413198 10.23872077 0.42261296 14.375 1.125 C17.72573864 1.39011339 21.07968515 1.54175629 24.4375 1.6875 C25.37126465 1.7285083 26.3050293 1.7695166 27.26708984 1.81176758 C40.59960221 2.55082895 40.59960221 2.55082895 53.8125 1.125 C69.40884781 -2.05329504 82.96698958 1.30638041 97.375 7.125 C102.68762814 9.17596358 107.74476373 10.3491622 113.375 11.25 C130.10625277 14.50562993 144.54053078 24.61944831 154.375 38.4375 C156.09910613 41.04217584 157.66483748 43.64470859 159.1875 46.375 C163.010125 51.18058572 168.54225615 53.57744135 173.86328125 56.484375 C188.95055391 65.05067336 198.50437359 77.40094895 205.375 93.125 C205.47554688 93.86492187 205.57609375 94.60484375 205.6796875 95.3671875 C205.90914063 95.94726562 206.13859375 96.52734375 206.375 97.125 C208.94547101 98.2136386 208.94547101 98.2136386 212.125 98.875 C227.55272128 103.24197247 241.72769162 114.59752748 250.375 128.125 C250.86613281 128.86105469 251.35726563 129.59710938 251.86328125 130.35546875 C253.75141059 133.81459977 254.8681574 137.30017136 256 141.0625 C256.2165625 141.75279297 256.433125 142.44308594 256.65625 143.15429688 C260.09018662 154.33578803 260.85232889 166.2009006 257.875 177.5625 C256.25617296 184.36000189 255.89942191 191.02209787 255.75 198 C255.67942383 199.60572876 255.67942383 199.60572876 255.60742188 201.24389648 C255.56908736 206.81677711 255.88255055 210.24430639 259.68359375 214.4765625 C260.31813477 215.10062988 260.95267578 215.72469727 261.60644531 216.36767578 C270.66065381 225.36438931 274.38182435 241.96685168 274.74389648 254.33300781 C274.78636504 268.54128658 271.66094194 280.51780053 264.8125 292.96484375 C262.97938885 296.99469951 262.16524721 300.98559749 261.3125 305.3125 C260.99426202 306.9113583 260.67026747 308.50908426 260.33984375 310.10546875 C260.13282837 311.15577271 260.13282837 311.15577271 259.92163086 312.22729492 C259.375 314.125 259.375 314.125 257.375 317.125 C257.64279113 322.30229518 258.74887477 326.71688487 260.55859375 331.55859375 C262.75752263 338.47101612 263.76497896 345.12742782 263.75 352.375 C263.74838867 353.19911377 263.74677734 354.02322754 263.74511719 354.87231445 C263.60127745 362.11154271 262.15711688 368.42087113 259.375 375.125 C259.08625 375.83398438 258.7975 376.54296875 258.5 377.2734375 C253.92243485 387.28686126 247.22214096 396.62584204 238.62890625 403.52734375 C235.09113576 406.37174274 232.53637246 409.15047383 230 412.9375 C219.78870812 427.97266928 204.15886756 436.99687708 186.4765625 440.73828125 C175.37944286 442.12192715 165.0697964 441.35173484 154.375 438.125 C150.71015719 436.9069227 150.71015719 436.9069227 147.375 437.125 C145.47950171 438.37347724 143.94388727 439.80162182 142.30859375 441.375 C132.12503906 450.59163131 118.09265649 455.75220636 104.5625 456.4375 C100.01540725 456.74831393 96.58858439 457.6895833 92.4375 459.5625 C78.91384475 465.64726556 62.63317647 465.73410092 48.375 462.125 C47.07755859 461.62226562 47.07755859 461.62226562 45.75390625 461.109375 C40.98163742 459.71907241 36.25651517 459.56527749 31.3125 459.25 C15.8261301 458.06107383 2.60001374 454.02268515 -10.25 444.9375 C-14.09463797 442.26085331 -17.72184059 441.02781595 -22.21875 439.8203125 C-30.49926187 437.42756719 -38.28687384 432.2305832 -43.71484375 425.5546875 C-50.49893872 417.37562045 -56.70157829 416.81850846 -66.7109375 415.73828125 C-82.26218493 414.01664219 -96.83346383 404.09243309 -106.625 392.125 C-106.625 391.465 -106.625 390.805 -106.625 390.125 C-107.48544922 389.72474609 -107.48544922 389.72474609 -108.36328125 389.31640625 C-110.70986429 388.08029602 -112.70611973 386.67093672 -114.8125 385.0625 C-115.50730469 384.53527344 -116.20210938 384.00804687 -116.91796875 383.46484375 C-118.625 382.125 -118.625 382.125 -119.625 381.125 C-121.51549924 380.92935778 -123.40682053 380.73972427 -125.30078125 380.58105469 C-144.82323246 378.89560575 -161.04721779 372.83261227 -174.625 358.125 C-183.28140376 347.11376377 -188.67791976 335.05263692 -190.46240234 321.17456055 C-191.19778248 315.95483974 -192.90522073 312.63724333 -195.625 308.125 C-201.11785579 294.12160839 -202.50391721 276.63296455 -196.59765625 262.59765625 C-195.21828976 259.09107398 -194.07330812 255.78328314 -195.296875 252.10546875 C-195.83054688 251.21794922 -195.83054688 251.21794922 -196.375 250.3125 C-200.27070687 243.2220439 -202.21857521 236.19191628 -202.625 228.125 C-202.67785156 227.08472656 -202.73070312 226.04445312 -202.78515625 224.97265625 C-203.04869918 214.78614917 -201.9089865 204.69942555 -198.078125 195.19140625 C-196.495427 191.11304753 -196.03225706 187.2731728 -195.6875 182.9375 C-194.0791798 167.01791495 -188.43213768 154.70231425 -178.44116211 142.31469727 C-175.17770257 138.14604457 -172.81217873 133.84427239 -170.5625 129.0625 C-167.61777343 122.81597562 -164.22149833 117.50180322 -159.91015625 112.06640625 C-157.88638404 109.46144818 -156.05857316 106.82080198 -154.24658203 104.07055664 C-150.06574541 97.75015822 -145.60499417 92.76721345 -139.625 88.125 C-138.94050781 87.56039062 -138.25601563 86.99578125 -137.55078125 86.4140625 C-135.625 85.125 -135.625 85.125 -132.625 85.125 C-132.625 84.465 -132.625 83.805 -132.625 83.125 C-131.70976562 82.84527344 -130.79453125 82.56554687 -129.8515625 82.27734375 C-128.66304688 81.87644531 -127.47453125 81.47554688 -126.25 81.0625 C-125.06664063 80.67964844 -123.88328125 80.29679687 -122.6640625 79.90234375 C-119.33711872 78.373662 -119.33711872 78.373662 -118.31640625 74.859375 C-118.08824219 73.62703125 -117.86007813 72.3946875 -117.625 71.125 C-113.27062861 53.56305661 -105.1766883 41.28608364 -91.3828125 29.62890625 C-89.94720215 28.40066184 -88.58595685 27.08595685 -87.25 25.75 C-72.46220389 10.96220389 -56.80541619 1.08575182 -35.36328125 0.96484375 C-33.22122205 0.98706157 -31.07924664 1.01969101 -28.9375 1.0625 C-20.64659521 1.274438 -20.64659521 1.274438 -12.39453125 0.63671875 C-8.22253866 0.07036535 -4.20166759 -0.02267087 0 0 Z M1.375 50.125 C0.55177246 50.29128906 -0.27145508 50.45757812 -1.11962891 50.62890625 C-33.8051507 57.45550914 -62.14174266 73.7285142 -86.625 96.125 C-87.56730469 96.98351562 -88.50960937 97.84203125 -89.48046875 98.7265625 C-118.62037521 126.56295222 -140.57525734 169.68322573 -141.80200195 210.34008789 C-141.82814989 211.842522 -141.84832212 213.34506909 -141.86328125 214.84765625 C-141.87302979 215.662379 -141.88277832 216.47710175 -141.89282227 217.31651306 C-142.05997559 234.90031201 -142.08674467 251.98559462 -137.625 269.125 C-137.44308105 269.83833496 -137.26116211 270.55166992 -137.07373047 271.28662109 C-135.83071206 275.99320643 -134.30603864 280.55848388 -132.625 285.125 C-132.34672363 285.89376465 -132.06844727 286.6625293 -131.78173828 287.45458984 C-124.77327663 306.57719072 -115.42155708 323.28982295 -102.625 339.125 C-101.88612549 340.04539062 -101.88612549 340.04539062 -101.13232422 340.984375 C-71.5489739 377.52679123 -28.53967254 399.78314482 17.91796875 405.61328125 C65.46402836 410.58524565 112.93016012 396.35560455 150.1875 366.625 C151.93080247 365.14145227 153.6593536 363.64044541 155.375 362.125 C155.89400879 361.67157227 156.41301758 361.21814453 156.94775391 360.75097656 C164.54627477 354.08138657 171.18888801 347.15354607 177.375 339.125 C178.53902344 337.71927734 178.53902344 337.71927734 179.7265625 336.28515625 C192.12351321 320.99558371 200.80614769 303.60162733 207.375 285.125 C207.7474585 284.10792969 207.7474585 284.10792969 208.12744141 283.0703125 C209.79036568 278.47912033 211.16846885 273.85601275 212.375 269.125 C212.57109863 268.3717041 212.76719727 267.6184082 212.96923828 266.84228516 C216.33071721 253.239702 216.76924805 239.68580964 216.8125 225.75 C216.8186734 224.90518066 216.8248468 224.06036133 216.83120728 223.18994141 C216.90161877 208.20084437 214.99595759 194.04946086 211.0625 179.5625 C210.84867676 178.77278809 210.63485352 177.98307617 210.41455078 177.16943359 C204.68247476 156.56293071 195.32909234 137.18883221 182.375 120.125 C181.41013672 118.84496094 181.41013672 118.84496094 180.42578125 117.5390625 C154.14348924 83.73992835 118.85790147 60.90822336 77.125 51.0625 C76.47660156 50.90201172 75.82820312 50.74152344 75.16015625 50.57617188 C63.1270498 47.72260663 51.1567716 46.7447946 38.8125 46.8125 C38.1170105 46.81432281 37.421521 46.81614563 36.70495605 46.81802368 C24.730623 46.87055469 13.11969859 47.70213426 1.375 50.125 Z " fill="#00769D" transform="translate(218.625,29.875)"/>
<path d="M0 0 C1.12148438 0.19464844 2.24296875 0.38929687 3.3984375 0.58984375 C26.74521087 5.1042656 48.00418198 14.8429918 66.9375 29.125 C67.48180664 29.53282715 68.02611328 29.9406543 68.58691406 30.36083984 C71.90862664 32.92724099 74.50885399 35.62644806 77 39 C76.32195312 39.07476562 75.64390625 39.14953125 74.9453125 39.2265625 C66.73820255 40.38601571 59.62819767 42.73329963 54.11328125 49.21875 C49.384854 56.08813583 46.48568296 62.57147572 48 71 C50.77194028 77.3190128 54.79120551 82.77360708 58.9375 88.25 C73.16230058 107.47419651 77.63651664 129.00398408 74.45703125 152.57421875 C72.37910596 165.26477458 67.92061243 177.45313837 63.7421875 189.57421875 C63.15849899 191.27080376 63.15849899 191.27080376 62.5630188 193.00166321 C61.74910678 195.36407221 60.93398144 197.72606352 60.11767578 200.08764648 C58.86562197 203.71466681 57.62221624 207.34458388 56.37890625 210.97460938 C55.58386127 213.27882806 54.78830703 215.58287111 53.9921875 217.88671875 C53.62133026 218.97305099 53.25047302 220.05938324 52.86837769 221.17863464 C52.52106598 222.17760269 52.17375427 223.17657074 51.81591797 224.20581055 C51.51265594 225.08593307 51.20939392 225.9660556 50.89694214 226.87284851 C50 229 50 229 48 231 C44.39158153 222.61659055 41.20092675 214.15033883 38.2265625 205.5234375 C37.78175145 204.24251876 37.33656634 202.96172987 36.89103699 201.68106079 C35.95118208 198.97765923 35.01337904 196.27355929 34.07730103 193.56884766 C31.86557265 187.1791896 29.64219521 180.79358262 27.4189167 174.4079361 C26.92328788 172.98434766 26.42777787 171.56071786 25.9323864 170.13704681 C21.61720643 157.73713126 17.24239701 145.35944087 12.8125 133 C12.21621798 131.33439458 11.61994505 129.66878591 11.02368164 128.00317383 C8.78920951 121.76496765 6.55018306 115.52840672 4.30664062 109.29345703 C2.9674287 105.57112367 1.63255132 101.8472619 0.30062866 98.12231445 C-0.41411073 96.12776987 -1.13407294 94.13516498 -1.85424805 92.14257812 C-2.27230713 90.97275391 -2.69036621 89.80292969 -3.12109375 88.59765625 C-3.4864624 87.58195557 -3.85183105 86.56625488 -4.22827148 85.51977539 C-5 83 -5 83 -5 80 C1.93 80 8.86 80 16 80 C16 75.05 16 70.1 16 65 C-14.69 65 -45.38 65 -77 65 C-77 69.95 -77 74.9 -77 80 C-69.74 80 -62.48 80 -55 80 C-54.44538086 81.57821533 -53.89076172 83.15643066 -53.31933594 84.7824707 C-51.4718376 90.03923381 -49.62378648 95.29580236 -47.77537155 100.55224323 C-46.65641501 103.73434542 -45.53766977 106.91652154 -44.41943359 110.09887695 C-43.12913683 113.77054082 -41.8380757 117.44193518 -40.546875 121.11328125 C-39.95444 122.79989616 -39.95444 122.79989616 -39.35003662 124.52058411 C-38.96994446 125.60087387 -38.58985229 126.68116364 -38.19824219 127.79418945 C-37.83807007 128.83878326 -37.47789795 129.88337708 -37.10681152 130.95962524 C-36.37738983 132.96332259 -35.58312195 134.94474635 -34.72229004 136.89559937 C-32.18930541 142.80354453 -31.59945504 146.27565963 -33.90292358 152.32614136 C-34.2649588 153.20851471 -34.62699402 154.09088806 -35 155 C-35.73260668 157.12160239 -36.45638676 159.2462655 -37.1730957 161.37329102 C-38.00502612 163.7509681 -38.83937453 166.12780013 -39.67578125 168.50390625 C-40.12813588 169.79403606 -40.58029541 171.08423428 -41.03227234 172.37449646 C-42.21654312 175.75351986 -43.40351479 179.13158825 -44.59106445 182.50946045 C-45.78052046 185.89437854 -46.9672611 189.28024822 -48.15429688 192.66601562 C-52.75417416 205.78275201 -57.36529873 218.89552408 -62 232 C-64 231 -64 231 -64.96704102 228.61889648 C-65.30920654 227.54712158 -65.65137207 226.47534668 -66.00390625 225.37109375 C-66.40561035 224.13415771 -66.80731445 222.89722168 -67.22119141 221.62280273 C-67.43785461 220.94595428 -67.65451782 220.26910583 -67.87774658 219.57174683 C-69.08406333 215.81188579 -70.32061113 212.06203388 -71.55859375 208.3125 C-71.82845093 207.49482651 -72.09830811 206.67715302 -72.37634277 205.83470154 C-75.81039244 195.48354956 -79.46914674 185.21193221 -83.125 174.9375 C-83.48157684 173.93447845 -83.83815369 172.93145691 -84.20553589 171.89804077 C-86.04667989 166.71963304 -87.88990865 161.54197129 -89.734375 156.36474609 C-93.17836587 146.69454899 -96.60405584 137.01786599 -100.0302124 127.34133911 C-101.08740124 124.35616718 -102.14540083 121.37128381 -103.20361328 118.38647461 C-104.81954055 113.82777441 -106.43198949 109.2678556 -108.04260254 104.70727539 C-109.04103074 101.88397556 -110.04352801 99.06213669 -111.04589844 96.24023438 C-111.69484042 94.40501119 -112.34361019 92.5697271 -112.9921875 90.734375 C-113.29577179 89.88280823 -113.59935608 89.03124146 -113.91213989 88.15386963 C-116 82.22749962 -116 82.22749962 -116 80 C-109.73 80 -103.46 80 -97 80 C-97 75.05 -97 70.1 -97 65 C-114.49 65 -131.98 65 -150 65 C-143.27122153 54.9068323 -143.27122153 54.9068323 -139.4375 50.8125 C-137.01804178 48.19948512 -134.64016411 45.61047874 -132.4375 42.8125 C-129.24950442 39.13404357 -125.75678124 36.08592744 -122 33 C-121.0615625 32.22398437 -120.123125 31.44796875 -119.15625 30.6484375 C-110.9876169 24.0487088 -102.3235932 18.80676987 -93 14 C-92.35740234 13.66838867 -91.71480469 13.33677734 -91.05273438 12.99511719 C-82.31252258 8.55358974 -73.53748956 5.35143207 -64 3 C-62.96625244 2.73509766 -62.96625244 2.73509766 -61.91162109 2.46484375 C-41.51648363 -2.75835689 -20.79578996 -3.73197585 0 0 Z " fill="#FDFEFE" transform="translate(281,108)"/>
<path d="M0 0 C0.70964905 -0.00100708 1.4192981 -0.00201416 2.15045166 -0.00305176 C12.4757258 0.00683863 22.41214423 0.5004731 32.50634766 2.81005859 C34.56331232 3.2639712 36.62331115 3.63171584 38.69921875 3.98828125 C81.14817463 11.7158489 119.02960994 39.24153243 144.5 73.25 C145.13808594 74.09304687 145.77617187 74.93609375 146.43359375 75.8046875 C159.17276761 93.28059806 168.18087309 113.35342998 173.5 134.25 C173.78617187 135.37148438 173.78617187 135.37148438 174.078125 136.515625 C176.7168236 146.99910322 178.6304168 157.13808862 178.73828125 167.97265625 C178.74802979 168.787379 178.75777832 169.60210175 178.76782227 170.44151306 C178.93497559 188.02531201 178.96174467 205.11059462 174.5 222.25 C174.31808105 222.96333496 174.13616211 223.67666992 173.94873047 224.41162109 C172.70571206 229.11820643 171.18103864 233.68348388 169.5 238.25 C169.22172363 239.01876465 168.94344727 239.7875293 168.65673828 240.57958984 C161.64827663 259.70219072 152.29655708 276.41482295 139.5 292.25 C139.00741699 292.86359375 138.51483398 293.4771875 138.00732422 294.109375 C107.92141806 331.27256624 64.46118601 353.09215847 17.26953125 358.87060547 C-16.08659513 362.22782182 -49.49182103 356.00206906 -79.5 341.25 C-80.14630371 340.93836914 -80.79260742 340.62673828 -81.45849609 340.30566406 C-95.68274687 333.38575828 -108.69905937 324.36176114 -120.1640625 313.46484375 C-122.19397873 311.54015729 -124.27455453 309.77008395 -126.4375 308 C-148.05399553 289.07453759 -162.20751786 261.93595638 -171.5 235.25 C-171.90992188 234.12464844 -172.31984375 232.99929688 -172.7421875 231.83984375 C-173.82115949 228.6656587 -174.69271192 225.50438007 -175.5 222.25 C-175.68046875 221.54504395 -175.8609375 220.84008789 -176.046875 220.11376953 C-179.39520719 206.44612639 -179.89934155 192.87284445 -179.9375 178.875 C-179.94358276 178.03045258 -179.94966553 177.18590515 -179.95593262 176.31576538 C-180.02652534 161.32627505 -178.12106759 147.17486601 -174.1875 132.6875 C-173.97367676 131.89778809 -173.75985352 131.10807617 -173.53955078 130.29443359 C-165.30100755 100.67731682 -149.3397992 75.64445562 -128.5 53.25 C-127.88769531 52.58355469 -127.27539062 51.91710937 -126.64453125 51.23046875 C-94.02280669 17.07851404 -46.47518143 0.04596551 0 0 Z M-35.5 16.25 C-36.32048828 16.42321777 -37.14097656 16.59643555 -37.98632812 16.77490234 C-68.16658882 23.25151018 -93.78978342 38.77573139 -116.5 59.25 C-117.69882813 60.32121094 -117.69882813 60.32121094 -118.921875 61.4140625 C-135.84904792 77.41456537 -147.18352425 98.19124916 -156.5 119.25 C-157.13228516 120.67505859 -157.13228516 120.67505859 -157.77734375 122.12890625 C-172.02042344 157.76520604 -170.89246879 200.74233604 -157.5 236.25 C-157.23316406 236.9733252 -156.96632813 237.69665039 -156.69140625 238.44189453 C-148.92142224 259.25634333 -137.37032502 277.82198496 -121.91650391 293.78222656 C-120.49524487 295.25492724 -119.09721558 296.74742498 -117.69921875 298.2421875 C-105.76914818 310.79790407 -91.8779581 320.38681322 -76.5 328.25 C-75.46141846 328.78367187 -75.46141846 328.78367187 -74.40185547 329.328125 C-60.02596021 336.62345406 -45.40054392 341.39943617 -29.5 344.25 C-28.57300293 344.41991455 -27.64600586 344.5898291 -26.69091797 344.76489258 C13.35677231 351.59584081 55.99734607 342.21009923 90.0625 320.25 C91.89152076 318.93942109 93.70395067 317.60541169 95.5 316.25 C97.07974609 315.10917969 97.07974609 315.10917969 98.69140625 313.9453125 C114.21166745 302.47828392 127.96809326 288.42679969 138.5 272.25 C139.09216309 271.3523291 139.09216309 271.3523291 139.69628906 270.43652344 C162.36916868 235.67144136 171.00160997 193.12162323 164.5 152.25 C164.30535156 151.01121094 164.11070312 149.77242187 163.91015625 148.49609375 C156.22780113 105.62946131 129.92640915 67.03716102 94.6171875 42.01953125 C82.46071281 33.67622135 69.30076428 27.35216117 55.5 22.25 C54.84902344 22.00910645 54.19804687 21.76821289 53.52734375 21.52001953 C39.4092061 16.38258611 25.0150027 13.13331946 9.96875 13.046875 C9.17456665 13.04117493 8.3803833 13.03547485 7.56213379 13.02960205 C5.88811549 13.0202122 4.21407921 13.01364221 2.54003906 13.00976562 C0.03415811 13.00013133 -2.47087574 12.96908014 -4.9765625 12.9375 C-15.5350207 12.86833495 -25.19636289 13.89756463 -35.5 16.25 Z " fill="#F9FCFD" transform="translate(256.5,76.75)"/>
<path d="M0 0 C2.36624486 2.36624486 2.9023324 4.1391479 3.99267578 7.29614258 C4.38189209 8.41360367 4.7711084 9.53106476 5.17211914 10.68238831 C5.59227295 11.90739548 6.01242676 13.13240265 6.4453125 14.39453125 C6.89178726 15.68243555 7.33882046 16.97014638 7.78637695 18.25767517 C8.74118594 21.00763924 9.69254333 23.75876296 10.64117432 26.51086426 C12.12583009 30.81755895 13.6182636 35.12152773 15.11279297 39.42480469 C15.36091295 40.13924303 15.60903294 40.85368137 15.86467171 41.58976936 C16.36668379 43.03515596 16.86873165 44.48053013 17.37081528 45.92589188 C18.1270385 48.10352637 18.88255971 50.28140345 19.63796997 52.45932007 C24.07419582 65.2440674 28.58119129 78.00308919 33.125 90.75 C33.45179749 91.66786285 33.77859497 92.58572571 34.11529541 93.53140259 C35.03707791 96.12015184 35.95975319 98.70858077 36.8828125 101.296875 C37.16053497 102.07649094 37.43825745 102.85610687 37.72439575 103.65934753 C39.55411539 108.78483091 41.43076554 113.89104734 43.36669922 118.97753906 C44 121 44 121 44 124 C30.81855276 128.94304272 17.62730699 130.49425282 3.66333008 130.33618164 C1.43469105 130.31247011 -0.79274958 130.31567101 -3.02148438 130.32226562 C-15.38233494 130.29913564 -27.49844146 129.28615958 -39.4375 125.875 C-40.69433594 125.52179688 -41.95117188 125.16859375 -43.24609375 124.8046875 C-44.15488281 124.53914063 -45.06367188 124.27359375 -46 124 C-44.69803306 117.48567434 -42.86393481 111.51152188 -40.45703125 105.328125 C-40.10025299 104.39576019 -39.74347473 103.46339539 -39.37588501 102.5027771 C-38.19367145 99.41634432 -37.00300651 96.33324237 -35.8125 93.25 C-34.54393477 89.94433025 -33.2777296 86.6377632 -32.01179504 83.33108521 C-31.11318993 80.98388965 -30.21391317 78.63695112 -29.31401062 76.29025269 C-25.74074893 66.96391163 -22.20997385 57.6220043 -18.6953125 48.2734375 C-18.4335919 47.57754517 -18.1718713 46.88165283 -17.90221977 46.16467285 C-15.56536342 39.95109415 -13.22971456 33.73706326 -10.89785767 27.52160645 C-9.91388498 24.89902919 -8.92881727 22.27686863 -7.94247437 19.65518188 C-7.04251876 17.26292774 -6.14425324 14.87003687 -5.24795532 12.47640991 C-4.64846573 10.88441269 -4.64846573 10.88441269 -4.03686523 9.26025391 C-3.69002182 8.33628815 -3.34317841 7.41232239 -2.98582458 6.46035767 C-2.09471743 4.23638969 -1.10835689 2.12253067 0 0 Z " fill="#FCFDFD" transform="translate(256,276)"/>
<path d="M0 0 C3.73935451 4.18074825 5.81228786 8.50811097 7.9375 13.625 C8.28377441 14.45459229 8.63004883 15.28418457 8.98681641 16.13891602 C12.51368963 24.85753719 15.07275945 33.79955373 17 43 C17.18473877 43.87970459 17.36947754 44.75940918 17.55981445 45.66577148 C19.16205904 54.14870672 19.44231844 62.58044179 19.4375 71.1875 C19.43790283 71.92922455 19.43830566 72.6709491 19.4387207 73.43515015 C19.31238658 114.09132227 2.98683799 150.05361328 -25 179 C-25.92039062 179.99773437 -25.92039062 179.99773437 -26.859375 181.015625 C-35.6058205 190.28166132 -46.82793116 197.94916695 -58 204 C-58.66 204 -59.32 204 -60 204 C-58.11076757 196.69605096 -55.90821089 189.59779133 -53.32421875 182.51171875 C-52.96652908 181.51932693 -52.60883942 180.52693512 -52.24031067 179.50447083 C-51.05974034 176.23079827 -49.87354743 172.95919173 -48.6875 169.6875 C-46.97040707 164.93179952 -45.2565481 160.17493621 -43.54296875 155.41796875 C-43.09577484 154.17759857 -42.64858093 152.93722839 -42.18783569 151.65927124 C-38.83888272 142.36368113 -35.53032751 133.05416057 -32.23828125 123.73828125 C-31.7539792 122.3686209 -31.26966016 120.99896656 -30.7853241 119.62931824 C-28.90406794 114.30814708 -27.02296261 108.98692857 -25.14901733 103.66317749 C-23.84188745 99.95148137 -22.5314396 96.24098333 -21.21875 92.53125 C-20.79620438 91.33591141 -20.37365875 90.14057281 -19.93830872 88.90901184 C-17.70685263 82.64109245 -15.40872666 76.40613721 -13.00390625 70.203125 C-12.6299258 69.23472309 -12.6299258 69.23472309 -12.2483902 68.24675751 C-11.05981298 65.17192439 -9.86054256 62.10273583 -8.64050293 59.04016113 C-5.56408596 51.13719412 -3.58022862 43.32383781 -2 35 C-1.60765449 33.13913639 -1.21459127 31.2784237 -0.8203125 29.41796875 C0.24936217 23.37973277 0.22236573 17.42781697 0.125 11.3125 C0.11597656 10.21744141 0.10695313 9.12238281 0.09765625 7.99414062 C0.07438154 5.32918646 0.04169135 2.66471866 0 0 Z " fill="#FBFDFD" transform="translate(387,184)"/>
<path d="M0 0 C0.66 0 1.32 0 2 0 C2.20343018 0.59570801 2.40686035 1.19141602 2.61645508 1.80517578 C16.35587725 41.97227807 30.61244635 81.96276636 44.80049133 121.9730072 C47.4486128 129.44170791 50.09209688 136.91204278 52.734375 144.3828125 C53.90349603 147.68745598 55.07267897 150.99207754 56.24188232 154.29669189 C56.98891498 156.40854295 57.73570608 158.52047948 58.48223877 160.63250732 C59.51612132 163.55733058 60.55093276 166.4818237 61.5859375 169.40625 C61.88828308 170.2623587 62.19062866 171.11846741 62.50213623 172.0005188 C62.78808655 172.80794525 63.07403687 173.6153717 63.36865234 174.44726562 C63.63925476 175.21143799 63.90985718 175.97561035 64.18865967 176.76293945 C64.99749537 178.99309412 65.85296597 181.20143357 66.71337891 183.41210938 C68 187 68 187 68 190 C62.5062943 188.53845075 58.49177628 185.89098396 53.9375 182.625 C53.1945166 182.09624268 52.4515332 181.56748535 51.68603516 181.02270508 C44.59168639 175.87431746 38.25604777 170.12141259 32 164 C31.33871094 163.38898438 30.67742187 162.77796875 29.99609375 162.1484375 C16.05934048 149.02008059 6.43540126 131.43022457 -1 114 C-1.67675781 112.42798828 -1.67675781 112.42798828 -2.3671875 110.82421875 C-16.41860284 75.08474929 -13.93323709 35.19975686 0 0 Z " fill="#FBFDFD" transform="translate(117,198)"/>
<path d="M0 0 C0.33 0 0.66 0 1 0 C1 14.52 1 29.04 1 44 C-13.52 44 -28.04 44 -43 44 C-39.78410621 42.3920531 -36.65053585 41.05903366 -33.3125 39.75 C-19.34566384 33.93898058 -10.00119896 25.10138749 -3.7734375 11.27734375 C-2.25057528 7.55783494 -0.90399932 3.92031387 0 0 Z " fill="#000000" transform="translate(511,468)"/>
<path d="M0 0 C1.6079469 3.21589379 2.94096634 6.34946415 4.25 9.6875 C10.02615804 23.57054652 18.87359747 33.13120119 32.72265625 39.19140625 C34.39871307 39.86034793 36.08169074 40.51241936 37.7734375 41.140625 C40 42 40 42 44 44 C29.48 44 14.96 44 0 44 C0 29.48 0 14.96 0 0 Z " fill="#000000" transform="translate(0,468)"/>
<path d="M0 0 C14.52 0 29.04 0 44 0 C44 14.52 44 29.04 44 44 C42.3920531 40.78410621 41.05903366 37.65053585 39.75 34.3125 C33.97384196 20.42945348 25.12640253 10.86879881 11.27734375 4.80859375 C9.60128693 4.13965207 7.91830926 3.48758064 6.2265625 2.859375 C4 2 4 2 0 0 Z " fill="#000000" transform="translate(468,0)"/>
<path d="M0 0 C14.52 0 29.04 0 44 0 C40.78410621 1.6079469 37.65053585 2.94096634 34.3125 4.25 C20.42945348 10.02615804 10.86879881 18.87359747 4.80859375 32.72265625 C4.13965207 34.39871307 3.48758064 36.08169074 2.859375 37.7734375 C2 40 2 40 0 44 C0 29.48 0 14.96 0 0 Z " fill="#000000" transform="translate(0,0)"/>
</svg>
