<svg version="1.1" id="Layer_1" xmlns="http://www.w3.org/2000/svg" xmlns:xlink="http://www.w3.org/1999/xlink" x="0px" y="0px"
	 width="100%" viewBox="0 0 512 512" enable-background="new 0 0 512 512" xml:space="preserve">
<path fill="#1B5F7D" opacity="1.000000" stroke="none" 
	d="
M0.999999,469.000000 
	C1.000000,327.976685 1.000000,186.953354 1.362356,45.318794 
	C5.279557,28.414982 13.936581,15.750065 28.741962,7.806505 
	C33.895172,5.041642 39.565723,3.241008 45.000000,1.000000 
	C186.023331,1.000000 327.046661,1.000000 468.681213,1.362365 
	C485.585052,5.279555 498.249939,13.936592 506.193481,28.742004 
	C508.958313,33.895214 510.758972,39.565739 513.000000,45.000000 
	C513.000000,186.023331 513.000000,327.046661 512.637634,468.681213 
	C508.720459,485.585083 500.063385,498.250000 485.258057,506.193573 
	C480.104889,508.958496 474.434265,510.759003 469.000000,513.000000 
	C327.976685,513.000000 186.953354,513.000000 45.318787,512.637634 
	C28.414967,508.720459 15.750076,500.063416 7.806506,485.258057 
	C5.041625,480.104858 3.241005,474.434296 0.999999,469.000000 
M87.913414,317.636932 
	C121.444733,410.940765 223.985794,459.732422 316.913879,426.601257 
	C410.606018,393.197632 459.300018,290.717346 426.060669,196.893265 
	C393.148651,103.992996 290.466248,55.211918 196.984787,88.066673 
	C104.034050,120.734901 54.848576,223.691040 87.913414,317.636932 
z"/>
<path fill="#FFFFFF" opacity="1.000000" stroke="none" 
	d="
M44.531342,1.000000 
	C39.565723,3.241008 33.895172,5.041642 28.741962,7.806505 
	C13.936581,15.750065 5.279557,28.414982 1.362356,44.853783 
	C1.000000,30.406635 1.000000,15.813272 1.000000,1.000000 
	C15.353479,1.000000 29.708082,1.000000 44.531342,1.000000 
z"/>
<path fill="#FFFFFF" opacity="1.000000" stroke="none" 
	d="
M513.000000,44.531342 
	C510.758972,39.565739 508.958313,33.895214 506.193481,28.742004 
	C498.249939,13.936592 485.585052,5.279555 469.146240,1.362365 
	C483.593353,1.000000 498.186737,1.000000 513.000000,1.000000 
	C513.000000,15.353479 513.000000,29.708082 513.000000,44.531342 
z"/>
<path fill="#FFFFFF" opacity="1.000000" stroke="none" 
	d="
M0.999999,469.468658 
	C3.241005,474.434296 5.041625,480.104858 7.806506,485.258057 
	C15.750076,500.063416 28.414967,508.720459 44.853775,512.637634 
	C30.406635,513.000000 15.813272,513.000000 1.000000,513.000000 
	C1.000000,498.646515 1.000000,484.291931 0.999999,469.468658 
z"/>
<path fill="#FFFFFF" opacity="1.000000" stroke="none" 
	d="
M469.468658,513.000000 
	C474.434265,510.759003 480.104889,508.958496 485.258057,506.193573 
	C500.063385,498.250000 508.720459,485.585083 512.637634,469.146240 
	C513.000000,483.593353 513.000000,498.186737 513.000000,513.000000 
	C498.646515,513.000000 484.291931,513.000000 469.468658,513.000000 
z"/>
<path fill="#FBFCFD" opacity="1.000000" stroke="none" 
	d="
M87.790115,317.265198 
	C54.848576,223.691040 104.034050,120.734901 196.984787,88.066673 
	C290.466248,55.211918 393.148651,103.992996 426.060669,196.893265 
	C459.300018,290.717346 410.606018,393.197632 316.913879,426.601257 
	C223.985794,459.732422 121.444733,410.940765 87.790115,317.265198 
M390.085693,357.573273 
	C419.878662,316.902679 429.951538,271.813629 419.983582,222.404953 
	C402.403503,135.264877 313.705750,76.126656 226.639969,93.337585 
	C135.682281,111.317856 77.692772,195.074829 92.902756,286.500580 
	C105.454697,361.949097 172.761841,421.400330 249.184753,423.822235 
	C306.911469,425.651672 353.710846,403.295532 390.085693,357.573273 
z"/>
<path fill="#1D617E" opacity="1.000000" stroke="none" 
	d="
M389.877808,357.862946 
	C353.710846,403.295532 306.911469,425.651672 249.184753,423.822235 
	C172.761841,421.400330 105.454697,361.949097 92.902756,286.500580 
	C77.692772,195.074829 135.682281,111.317856 226.639969,93.337585 
	C313.705750,76.126656 402.403503,135.264877 419.983582,222.404953 
	C429.951538,271.813629 419.878662,316.902679 389.877808,357.862946 
M305.658356,271.842041 
	C313.722198,294.680603 321.786072,317.519135 330.333069,341.726013 
	C338.212677,318.667969 346.137299,297.190125 352.873016,275.345673 
	C361.832428,246.289688 357.817963,219.083588 338.801453,194.678070 
	C336.247375,191.400223 333.423218,188.136215 331.780121,184.401245 
	C330.181763,180.768005 328.938629,176.446228 329.291595,172.587036 
	C330.332886,161.201904 339.432281,151.593735 350.690369,148.965256 
	C353.335693,148.347672 356.061432,148.074554 358.948120,147.611191 
	C291.239929,82.747368 179.073380,99.450813 132.838760,174.145218 
	C150.375229,174.145218 167.583878,174.145218 184.739868,174.145218 
	C184.739868,179.252731 184.739868,183.807098 184.739868,188.828796 
	C178.292343,188.828796 172.207596,188.828796 165.437561,188.828796 
	C183.468063,239.794647 201.268234,290.109436 219.430573,341.447937 
	C229.552490,312.532532 239.301727,284.783173 248.902344,256.982483 
	C249.431824,255.449280 249.100800,253.359406 248.539505,251.748444 
	C241.648560,231.971420 234.560776,212.262680 227.741928,192.461166 
	C226.648514,189.285950 224.988174,188.515915 221.920715,188.640717 
	C216.504532,188.861115 211.072906,188.702438 205.561691,188.702438 
	C205.561691,183.464188 205.561691,179.034332 205.561691,174.341797 
	C236.374786,174.341797 266.923859,174.341797 297.605286,174.341797 
	C297.605286,179.170288 297.605286,183.719940 297.605286,188.755798 
	C290.536804,188.755798 283.778168,188.755798 276.266022,188.755798 
	C286.107849,216.667480 295.711060,243.902481 305.658356,271.842041 
M233.110336,340.627838 
	C225.690826,360.328796 218.271317,380.029785 210.673096,400.205261 
	C241.117157,409.567902 271.006866,409.845642 301.316559,400.785034 
	C286.629333,359.275024 272.182037,318.443115 257.380554,276.610260 
	C249.150040,298.324127 241.270294,319.112549 233.110336,340.627838 
M400.378143,301.877808 
	C412.074860,263.432892 405.728302,203.179031 388.076935,185.826645 
	C390.224976,204.078827 387.757660,221.672516 381.605011,238.833817 
	C364.339935,286.990662 347.118073,335.163025 329.883392,383.330811 
	C329.237061,385.137299 328.635284,386.959686 327.594818,389.993317 
	C363.612518,369.510559 387.700226,340.916534 400.378143,301.877808 
M140.345230,259.130768 
	C133.315094,239.233963 126.284966,219.337158 118.941582,198.553802 
	C85.474319,278.254120 127.047928,361.307587 186.211548,388.744171 
	C170.975037,345.600342 155.831314,302.719238 140.345230,259.130768 
z"/>
<path fill="#FEFEFE" opacity="1.000000" stroke="none" 
	d="
M305.486328,271.489746 
	C295.711060,243.902481 286.107849,216.667480 276.266022,188.755798 
	C283.778168,188.755798 290.536804,188.755798 297.605286,188.755798 
	C297.605286,183.719940 297.605286,179.170288 297.605286,174.341797 
	C266.923859,174.341797 236.374786,174.341797 205.561691,174.341797 
	C205.561691,179.034332 205.561691,183.464188 205.561691,188.702438 
	C211.072906,188.702438 216.504532,188.861115 221.920715,188.640717 
	C224.988174,188.515915 226.648514,189.285950 227.741928,192.461166 
	C234.560776,212.262680 241.648560,231.971420 248.539505,251.748444 
	C249.100800,253.359406 249.431824,255.449280 248.902344,256.982483 
	C239.301727,284.783173 229.552490,312.532532 219.430573,341.447937 
	C201.268234,290.109436 183.468063,239.794647 165.437561,188.828796 
	C172.207596,188.828796 178.292343,188.828796 184.739868,188.828796 
	C184.739868,183.807098 184.739868,179.252731 184.739868,174.145218 
	C167.583878,174.145218 150.375229,174.145218 132.838760,174.145218 
	C179.073380,99.450813 291.239929,82.747368 358.948120,147.611191 
	C356.061432,148.074554 353.335693,148.347672 350.690369,148.965256 
	C339.432281,151.593735 330.332886,161.201904 329.291595,172.587036 
	C328.938629,176.446228 330.181763,180.768005 331.780121,184.401245 
	C333.423218,188.136215 336.247375,191.400223 338.801453,194.678070 
	C357.817963,219.083588 361.832428,246.289688 352.873016,275.345673 
	C346.137299,297.190125 338.212677,318.667969 330.333069,341.726013 
	C321.786072,317.519135 313.722198,294.680603 305.486328,271.489746 
z"/>
<path fill="#FEFEFE" opacity="1.000000" stroke="none" 
	d="
M233.250458,340.264404 
	C241.270294,319.112549 249.150040,298.324127 257.380554,276.610260 
	C272.182037,318.443115 286.629333,359.275024 301.316559,400.785034 
	C271.006866,409.845642 241.117157,409.567902 210.673096,400.205261 
	C218.271317,380.029785 225.690826,360.328796 233.250458,340.264404 
z"/>
<path fill="#FDFDFE" opacity="1.000000" stroke="none" 
	d="
M400.255188,302.259155 
	C387.700226,340.916534 363.612518,369.510559 327.594818,389.993317 
	C328.635284,386.959686 329.237061,385.137299 329.883392,383.330811 
	C347.118073,335.163025 364.339935,286.990662 381.605011,238.833817 
	C387.757660,221.672516 390.224976,204.078827 388.076935,185.826645 
	C405.728302,203.179031 412.074860,263.432892 400.255188,302.259155 
z"/>
<path fill="#FDFEFE" opacity="1.000000" stroke="none" 
	d="
M140.516418,259.484467 
	C155.831314,302.719238 170.975037,345.600342 186.211548,388.744171 
	C127.047928,361.307587 85.474319,278.254120 118.941582,198.553802 
	C126.284966,219.337158 133.315094,239.233963 140.516418,259.484467 
z"/>
</svg>