<svg id="Layer_2" height="512" viewBox="0 0 512 512" width="512" xmlns="http://www.w3.org/2000/svg" data-name="Layer 2"><g id="Icon"><g id="Pr"><rect id="Background" fill="#00005b" height="512" rx="135" width="512"/><path id="Pr-2" d="m156.1 292.64v77.35h-54.96v-227.98h90.98c17.43 0 32.86 3.21 46.27 9.63s23.8 15.55 31.16 27.4 11.04 25.29 11.04 40.32c0 22.24-7.96 40.01-23.88 53.32s-37.76 19.96-65.53 19.96zm0-42.43h36.01c10.65 0 18.76-2.66 24.35-7.99 5.58-5.32 8.38-12.84 8.38-22.55 0-10.65-2.87-19.15-8.61-25.52s-13.57-9.6-23.49-9.71h-36.64zm253.83-1.88-17.38-1.25c-16.6 0-27.25 5.22-31.94 15.66v107.26h-52.77v-169.43h49.48l1.72 21.77c8.87-16.6 21.24-24.9 37.11-24.9 5.64 0 10.54.63 14.72 1.88z" fill="#99f" data-name="Pr"/></g></g></svg>