<?xml version="1.0" encoding="UTF-8"?>
<svg version="1.1" xmlns="http://www.w3.org/2000/svg" width="512" height="512">
<path d="M0 0 C168.96 0 337.92 0 512 0 C512 168.96 512 337.92 512 512 C343.04 512 174.08 512 0 512 C0 343.04 0 174.08 0 0 Z " fill="#1B5F7D" transform="translate(0,0)"/>
<path d="M0 0 C0.74216766 -0.00696899 1.48433533 -0.01393799 2.24899292 -0.02111816 C4.64001149 -0.03847492 7.03079599 -0.04484131 9.421875 -0.046875 C10.23622009 -0.04788208 11.05056519 -0.04888916 11.8895874 -0.04992676 C23.6351697 -0.04007138 34.7010446 0.53087662 46.171875 3.203125 C47.56519172 3.45600455 48.95979105 3.70189988 50.35546875 3.94140625 C92.80700386 11.64511411 130.70539055 39.19987226 156.171875 73.203125 C156.80996094 74.04617187 157.44804687 74.88921875 158.10546875 75.7578125 C170.84464261 93.23372306 179.85274809 113.30655498 185.171875 134.203125 C185.45804687 135.32460938 185.45804687 135.32460938 185.75 136.46875 C188.36535872 146.85949951 190.29958841 156.93157674 190.41015625 167.671875 C190.41990479 168.46162216 190.42965332 169.25136932 190.43969727 170.06504822 C190.67052556 193.6200653 189.44651507 215.90034273 181.171875 238.203125 C180.89359863 238.97043945 180.61532227 239.73775391 180.32861328 240.52832031 C173.32069768 259.65322139 163.96973597 276.36633444 151.171875 292.203125 C150.67929199 292.81671875 150.18670898 293.4303125 149.67919922 294.0625 C119.59329306 331.22569124 76.13306101 353.04528347 28.94140625 358.82373047 C-4.41472013 362.18094682 -37.81994603 355.95519406 -67.828125 341.203125 C-68.47442871 340.89149414 -69.12073242 340.57986328 -69.78662109 340.25878906 C-84.01087187 333.33888328 -97.02718437 324.31488614 -108.4921875 313.41796875 C-110.52210373 311.49328229 -112.60267953 309.72320895 -114.765625 307.953125 C-136.39013618 289.02064481 -150.51729168 261.89037242 -159.828125 235.203125 C-160.23804688 234.089375 -160.64796875 232.975625 -161.0703125 231.828125 C-167.03345978 214.4471686 -168.21448146 196.48269272 -168.265625 178.265625 C-168.27170776 177.44676819 -168.27779053 176.62791138 -168.28405762 175.78424072 C-168.35603557 160.97570452 -166.40115261 146.95105933 -162.515625 132.640625 C-162.30180176 131.85091309 -162.08797852 131.06120117 -161.86767578 130.24755859 C-153.62913255 100.63044182 -137.6679242 75.59758062 -116.828125 53.203125 C-116.21582031 52.53667969 -115.60351562 51.87023437 -114.97265625 51.18359375 C-87.96737349 22.91153866 -51.53143139 8.14573166 -13.828125 1.203125 C-12.87639404 1.01903076 -11.92466309 0.83493652 -10.9440918 0.64526367 C-7.28763798 0.12643284 -3.68521057 0.02313637 0 0 Z " fill="#1D607E" transform="translate(244.828125,76.796875)"/>
<path d="M0 0 C1.12148438 0.19464844 2.24296875 0.38929687 3.3984375 0.58984375 C26.74521087 5.1042656 48.00418198 14.8429918 66.9375 29.125 C67.48180664 29.53282715 68.02611328 29.9406543 68.58691406 30.36083984 C71.90862664 32.92724099 74.50885399 35.62644806 77 39 C76.32195312 39.07476562 75.64390625 39.14953125 74.9453125 39.2265625 C66.73820255 40.38601571 59.62819767 42.73329963 54.11328125 49.21875 C49.384854 56.08813583 46.48568296 62.57147572 48 71 C50.77194028 77.3190128 54.79120551 82.77360708 58.9375 88.25 C73.16230058 107.47419651 77.63651664 129.00398408 74.45703125 152.57421875 C71.86652301 168.39528292 65.79760113 183.56291216 60.54492188 198.64111328 C59.36840684 202.01892918 58.19566073 205.39803634 57.0234375 208.77734375 C56.2736565 210.93497195 55.52366411 213.0925267 54.7734375 215.25 C54.24996231 216.75784058 54.24996231 216.75784058 53.71591187 218.29614258 C53.38862091 219.23482178 53.06132996 220.17350098 52.72412109 221.140625 C52.43862396 221.96079102 52.15312683 222.78095703 51.85897827 223.62597656 C50.96093692 226.10796161 49.9933701 228.5547813 49 231 C46.23488573 229.61744286 46.19284047 228.26419258 45.19091797 225.36816406 C44.84167267 224.37055054 44.49242737 223.37293701 44.13259888 222.34509277 C43.75626312 221.24636841 43.37992737 220.14764404 42.9921875 219.015625 C42.39590042 217.30372986 42.39590042 217.30372986 41.78756714 215.55725098 C40.92753837 213.0855657 40.07016983 210.6131382 39.21716309 208.13903809 C37.86737807 204.22453513 36.50754087 200.31357598 35.14550781 196.40332031 C34.68577686 195.08319585 34.22606009 193.76306644 33.76635742 192.44293213 C33.53832428 191.78811104 33.31029114 191.13328995 33.0753479 190.45862579 C32.37997895 188.4606083 31.68557609 186.4622575 30.99145508 184.46380615 C27.27811575 173.77526954 23.51229005 163.10597759 19.7119751 152.44805908 C18.7519101 149.75535727 17.79348501 147.06207672 16.83544922 144.36865234 C13.77036267 135.75494665 10.69502888 127.14498855 7.60748291 118.53930664 C6.09916778 114.33328223 4.59436149 110.12600677 3.08996582 105.9185791 C2.36868824 103.90451102 1.64565128 101.89107207 0.92077637 99.8782959 C-0.07787329 97.10525253 -1.0707957 94.33022079 -2.0625 91.5546875 C-2.36162292 90.72889191 -2.66074585 89.90309631 -2.96893311 89.05227661 C-5 83.34158112 -5 83.34158112 -5 80 C1.93 80 8.86 80 16 80 C16 75.05 16 70.1 16 65 C-14.69 65 -45.38 65 -77 65 C-77 69.95 -77 74.9 -77 80 C-69.74 80 -62.48 80 -55 80 C-54.44538086 81.57821533 -53.89076172 83.15643066 -53.31933594 84.7824707 C-51.4718376 90.03923381 -49.62378648 95.29580236 -47.77537155 100.55224323 C-46.65641501 103.73434542 -45.53766977 106.91652154 -44.41943359 110.09887695 C-43.12913683 113.77054082 -41.8380757 117.44193518 -40.546875 121.11328125 C-39.95444 122.79989616 -39.95444 122.79989616 -39.35003662 124.52058411 C-38.96994446 125.60087387 -38.58985229 126.68116364 -38.19824219 127.79418945 C-37.83807007 128.83878326 -37.47789795 129.88337708 -37.10681152 130.95962524 C-36.37738983 132.96332259 -35.58312195 134.94474635 -34.72229004 136.89559937 C-32.18930541 142.80354453 -31.59945504 146.27565963 -33.90292358 152.32614136 C-34.2649588 153.20851471 -34.62699402 154.09088806 -35 155 C-35.73260668 157.12160239 -36.45638676 159.2462655 -37.1730957 161.37329102 C-38.00502612 163.7509681 -38.83937453 166.12780013 -39.67578125 168.50390625 C-40.12813588 169.79403606 -40.58029541 171.08423428 -41.03227234 172.37449646 C-42.21654312 175.75351986 -43.40351479 179.13158825 -44.59106445 182.50946045 C-45.78052046 185.89437854 -46.9672611 189.28024822 -48.15429688 192.66601562 C-52.75417416 205.78275201 -57.36529873 218.89552408 -62 232 C-64.24657039 228.63014442 -65.47591483 225.20577599 -66.80859375 221.41796875 C-67.08666367 220.63789963 -67.36473358 219.85783051 -67.65122986 219.05412292 C-68.58410384 216.4333586 -69.51083918 213.81046706 -70.4375 211.1875 C-71.10275454 209.31386796 -71.76828863 207.44033516 -72.43408203 205.56689453 C-78.58378489 188.24400184 -84.67974409 170.90190589 -90.76879883 153.55761719 C-94.8086089 142.05277441 -98.86325771 130.55356069 -102.953125 119.06640625 C-103.34968292 117.95152832 -103.74624084 116.83665039 -104.15481567 115.68798828 C-106.04372652 110.37763465 -107.93573258 105.06842686 -109.83349609 99.76123047 C-110.50634409 97.87082488 -111.17904158 95.98036572 -111.8515625 94.08984375 C-112.15789612 93.23725479 -112.46422974 92.38466583 -112.77984619 91.50624084 C-113.05955261 90.71777267 -113.33925903 89.9293045 -113.62744141 89.11694336 C-113.86991608 88.43820663 -114.11239075 87.75946991 -114.36221313 87.06016541 C-115.07666873 84.75234632 -115.52620697 82.36896515 -116 80 C-109.73 80 -103.46 80 -97 80 C-97 75.05 -97 70.1 -97 65 C-114.49 65 -131.98 65 -150 65 C-143.27122153 54.9068323 -143.27122153 54.9068323 -139.4375 50.8125 C-137.01804178 48.19948512 -134.64016411 45.61047874 -132.4375 42.8125 C-129.24950442 39.13404357 -125.75678124 36.08592744 -122 33 C-121.0615625 32.22398437 -120.123125 31.44796875 -119.15625 30.6484375 C-110.9876169 24.0487088 -102.3235932 18.80676987 -93 14 C-92.35740234 13.66838867 -91.71480469 13.33677734 -91.05273438 12.99511719 C-82.31252258 8.55358974 -73.53748956 5.35143207 -64 3 C-62.96625244 2.73509766 -62.96625244 2.73509766 -61.91162109 2.46484375 C-41.51648363 -2.75835689 -20.79578996 -3.73197585 0 0 Z " fill="#FEFEFE" transform="translate(281,108)"/>
<path d="M0 0 C0.74216766 -0.00696899 1.48433533 -0.01393799 2.24899292 -0.02111816 C4.64001149 -0.03847492 7.03079599 -0.04484131 9.421875 -0.046875 C10.23622009 -0.04788208 11.05056519 -0.04888916 11.8895874 -0.04992676 C23.6351697 -0.04007138 34.7010446 0.53087662 46.171875 3.203125 C47.56519172 3.45600455 48.95979105 3.70189988 50.35546875 3.94140625 C92.80700386 11.64511411 130.70539055 39.19987226 156.171875 73.203125 C156.80996094 74.04617187 157.44804687 74.88921875 158.10546875 75.7578125 C170.84464261 93.23372306 179.85274809 113.30655498 185.171875 134.203125 C185.45804687 135.32460938 185.45804687 135.32460938 185.75 136.46875 C188.36535872 146.85949951 190.29958841 156.93157674 190.41015625 167.671875 C190.41990479 168.46162216 190.42965332 169.25136932 190.43969727 170.06504822 C190.67052556 193.6200653 189.44651507 215.90034273 181.171875 238.203125 C180.89359863 238.97043945 180.61532227 239.73775391 180.32861328 240.52832031 C173.32069768 259.65322139 163.96973597 276.36633444 151.171875 292.203125 C150.67929199 292.81671875 150.18670898 293.4303125 149.67919922 294.0625 C119.59329306 331.22569124 76.13306101 353.04528347 28.94140625 358.82373047 C-4.41472013 362.18094682 -37.81994603 355.95519406 -67.828125 341.203125 C-68.47442871 340.89149414 -69.12073242 340.57986328 -69.78662109 340.25878906 C-84.01087187 333.33888328 -97.02718437 324.31488614 -108.4921875 313.41796875 C-110.52210373 311.49328229 -112.60267953 309.72320895 -114.765625 307.953125 C-136.39013618 289.02064481 -150.51729168 261.89037242 -159.828125 235.203125 C-160.23804688 234.089375 -160.64796875 232.975625 -161.0703125 231.828125 C-167.03345978 214.4471686 -168.21448146 196.48269272 -168.265625 178.265625 C-168.27170776 177.44676819 -168.27779053 176.62791138 -168.28405762 175.78424072 C-168.35603557 160.97570452 -166.40115261 146.95105933 -162.515625 132.640625 C-162.30180176 131.85091309 -162.08797852 131.06120117 -161.86767578 130.24755859 C-153.62913255 100.63044182 -137.6679242 75.59758062 -116.828125 53.203125 C-116.21582031 52.53667969 -115.60351562 51.87023437 -114.97265625 51.18359375 C-87.96737349 22.91153866 -51.53143139 8.14573166 -13.828125 1.203125 C-12.87639404 1.01903076 -11.92466309 0.83493652 -10.9440918 0.64526367 C-7.28763798 0.12643284 -3.68521057 0.02313637 0 0 Z M-23.828125 16.203125 C-24.64861328 16.37634277 -25.46910156 16.54956055 -26.31445312 16.72802734 C-56.49471382 23.20463518 -82.11790842 38.72885639 -104.828125 59.203125 C-106.02695313 60.27433594 -106.02695313 60.27433594 -107.25 61.3671875 C-138.3080172 90.72494829 -154.81981277 134.40651905 -156.16235352 176.49047852 C-156.48312886 196.84914874 -153.00767216 217.16787826 -145.828125 236.203125 C-145.56128906 236.9264502 -145.29445313 237.64977539 -145.01953125 238.39501953 C-137.24954724 259.20946833 -125.69845002 277.77510996 -110.24462891 293.73535156 C-108.82336987 295.20805224 -107.42534058 296.70054998 -106.02734375 298.1953125 C-94.09727318 310.75102907 -80.2060831 320.33993822 -64.828125 328.203125 C-63.78954346 328.73679687 -63.78954346 328.73679687 -62.72998047 329.28125 C-48.35408521 336.57657906 -33.72866892 341.35256117 -17.828125 344.203125 C-16.90112793 344.37303955 -15.97413086 344.5429541 -15.01904297 344.71801758 C25.02864731 351.54896581 67.66922107 342.16322423 101.734375 320.203125 C103.56339576 318.89254609 105.37582567 317.55853669 107.171875 316.203125 C108.75162109 315.06230469 108.75162109 315.06230469 110.36328125 313.8984375 C125.88354245 302.43140892 139.63996826 288.37992469 150.171875 272.203125 C150.76403809 271.3054541 150.76403809 271.3054541 151.36816406 270.38964844 C174.05959838 235.59611582 182.62933608 193.10037848 176.171875 152.203125 C175.98882812 150.99914062 175.80578125 149.79515625 175.6171875 148.5546875 C168.07240118 105.61460731 141.6190057 67.00496785 106.2890625 41.97265625 C94.13258781 33.62934635 80.97263928 27.30528617 67.171875 22.203125 C66.52089844 21.96223145 65.86992187 21.72133789 65.19921875 21.47314453 C51.0810811 16.33571111 36.6868777 13.08644446 21.640625 13 C20.84644165 12.99429993 20.0522583 12.98859985 19.23400879 12.98272705 C17.55999049 12.9733372 15.88595421 12.96676721 14.21191406 12.96289062 C11.70603311 12.95325633 9.20099926 12.92220514 6.6953125 12.890625 C-3.8631457 12.82145995 -13.52448789 13.85068963 -23.828125 16.203125 Z " fill="#FAFBFC" transform="translate(244.828125,76.796875)"/>
<path d="M0 0 C2.36624486 2.36624486 2.9023324 4.1391479 3.99267578 7.29614258 C4.38189209 8.41360367 4.7711084 9.53106476 5.17211914 10.68238831 C5.59227295 11.90739548 6.01242676 13.13240265 6.4453125 14.39453125 C6.89178726 15.68243555 7.33882046 16.97014638 7.78637695 18.25767517 C8.74118594 21.00763924 9.69254333 23.75876296 10.64117432 26.51086426 C12.12583009 30.81755895 13.6182636 35.12152773 15.11279297 39.42480469 C15.36091295 40.13924303 15.60903294 40.85368137 15.86467171 41.58976936 C16.36668379 43.03515596 16.86873165 44.48053013 17.37081528 45.92589188 C18.1270385 48.10352637 18.88255971 50.28140345 19.63796997 52.45932007 C24.07419582 65.2440674 28.58119129 78.00308919 33.125 90.75 C33.45179749 91.66786285 33.77859497 92.58572571 34.11529541 93.53140259 C35.03707791 96.12015184 35.95975319 98.70858077 36.8828125 101.296875 C37.16053497 102.07649094 37.43825745 102.85610687 37.72439575 103.65934753 C39.55411539 108.78483091 41.43076554 113.89104734 43.36669922 118.97753906 C44 121 44 121 44 124 C30.81855276 128.94304272 17.62730699 130.49425282 3.66333008 130.33618164 C1.43469105 130.31247011 -0.79274958 130.31567101 -3.02148438 130.32226562 C-15.38233494 130.29913564 -27.49844146 129.28615958 -39.4375 125.875 C-40.69433594 125.52179688 -41.95117188 125.16859375 -43.24609375 124.8046875 C-44.15488281 124.53914063 -45.06367188 124.27359375 -46 124 C-44.69803306 117.48567434 -42.86393481 111.51152188 -40.45703125 105.328125 C-40.10025299 104.39576019 -39.74347473 103.46339539 -39.37588501 102.5027771 C-38.19367145 99.41634432 -37.00300651 96.33324237 -35.8125 93.25 C-34.54393477 89.94433025 -33.2777296 86.6377632 -32.01179504 83.33108521 C-31.11318993 80.98388965 -30.21391317 78.63695112 -29.31401062 76.29025269 C-25.74074893 66.96391163 -22.20997385 57.6220043 -18.6953125 48.2734375 C-18.4335919 47.57754517 -18.1718713 46.88165283 -17.90221977 46.16467285 C-15.56536342 39.95109415 -13.22971456 33.73706326 -10.89785767 27.52160645 C-9.91388498 24.89902919 -8.92881727 22.27686863 -7.94247437 19.65518188 C-7.04251876 17.26292774 -6.14425324 14.87003687 -5.24795532 12.47640991 C-4.64846573 10.88441269 -4.64846573 10.88441269 -4.03686523 9.26025391 C-3.69002182 8.33628815 -3.34317841 7.41232239 -2.98582458 6.46035767 C-2.09471743 4.23638969 -1.10835689 2.12253067 0 0 Z " fill="#FCFDFD" transform="translate(256,276)"/>
<path d="M0 0 C3.73935451 4.18074825 5.81228786 8.50811097 7.9375 13.625 C8.28377441 14.45459229 8.63004883 15.28418457 8.98681641 16.13891602 C12.51368963 24.85753719 15.07275945 33.79955373 17 43 C17.18473877 43.87970459 17.36947754 44.75940918 17.55981445 45.66577148 C19.16205904 54.14870672 19.44231844 62.58044179 19.4375 71.1875 C19.43790283 71.92922455 19.43830566 72.6709491 19.4387207 73.43515015 C19.31238658 114.09132227 2.98683799 150.05361328 -25 179 C-25.92039062 179.99773437 -25.92039062 179.99773437 -26.859375 181.015625 C-35.6058205 190.28166132 -46.82793116 197.94916695 -58 204 C-58.66 204 -59.32 204 -60 204 C-58.11076757 196.69605096 -55.90821089 189.59779133 -53.32421875 182.51171875 C-52.96652908 181.51932693 -52.60883942 180.52693512 -52.24031067 179.50447083 C-51.05974034 176.23079827 -49.87354743 172.95919173 -48.6875 169.6875 C-46.97040707 164.93179952 -45.2565481 160.17493621 -43.54296875 155.41796875 C-43.09577484 154.17759857 -42.64858093 152.93722839 -42.18783569 151.65927124 C-38.83888272 142.36368113 -35.53032751 133.05416057 -32.23828125 123.73828125 C-31.7539792 122.3686209 -31.26966016 120.99896656 -30.7853241 119.62931824 C-28.90406794 114.30814708 -27.02296261 108.98692857 -25.14901733 103.66317749 C-17.0653212 80.70889883 -17.0653212 80.70889883 -13.00390625 70.1328125 C-12.75458595 69.48247795 -12.50526566 68.8321434 -12.2483902 68.16210175 C-11.05664547 65.05839583 -9.8556504 61.95904361 -8.64050293 58.86437988 C-1.01881928 39.17153969 0.33217445 20.89888349 0 0 Z " fill="#FCFDFD" transform="translate(387,184)"/>
<path d="M0 0 C0.66 0 1.32 0 2 0 C2.20343018 0.59570801 2.40686035 1.19141602 2.61645508 1.80517578 C16.35587725 41.97227807 30.61244635 81.96276636 44.80049133 121.9730072 C47.4486128 129.44170791 50.09209688 136.91204278 52.734375 144.3828125 C53.90349603 147.68745598 55.07267897 150.99207754 56.24188232 154.29669189 C56.98891498 156.40854295 57.73570608 158.52047948 58.48223877 160.63250732 C59.51612132 163.55733058 60.55093276 166.4818237 61.5859375 169.40625 C61.88828308 170.2623587 62.19062866 171.11846741 62.50213623 172.0005188 C62.78808655 172.80794525 63.07403687 173.6153717 63.36865234 174.44726562 C63.63925476 175.21143799 63.90985718 175.97561035 64.18865967 176.76293945 C64.99749537 178.99309412 65.85296597 181.20143357 66.71337891 183.41210938 C68 187 68 187 68 190 C62.5062943 188.53845075 58.49177628 185.89098396 53.9375 182.625 C53.1945166 182.09624268 52.4515332 181.56748535 51.68603516 181.02270508 C44.59168639 175.87431746 38.25604777 170.12141259 32 164 C31.33871094 163.38898438 30.67742187 162.77796875 29.99609375 162.1484375 C16.05934048 149.02008059 6.43540126 131.43022457 -1 114 C-1.67675781 112.42798828 -1.67675781 112.42798828 -2.3671875 110.82421875 C-9.12780721 93.62872949 -11.47247045 75.73039241 -11.5 57.375 C-11.50440094 56.66887573 -11.50880188 55.96275146 -11.51333618 55.23522949 C-11.53968784 45.12620434 -10.31017146 35.84639263 -8 26 C-7.81646973 25.17081055 -7.63293945 24.34162109 -7.44384766 23.48730469 C-5.62676243 15.38668227 -3.42675938 7.58261651 0 0 Z " fill="#FCFDFD" transform="translate(117,198)"/>
</svg>
